<svg width="46" height="46" viewBox="0 0 46 46" fill="none" xmlns="http://www.w3.org/2000/svg">
<g id="btn-BURGER / on-white / ghost_color">
<rect x="0.5" y="0.5" width="45" height="45" rx="11.5" fill="white"/>
<rect x="0.5" y="0.5" width="45" height="45" rx="11.5" stroke="#DEDFE7"/>
<g id="Vector">
<path fill-rule="evenodd" clip-rule="evenodd" d="M12 14.5C12 14.2239 12.2239 14 12.5 14H15.5C15.7294 14 15.9294 14.1561 15.9851 14.3787L16.8904 18H33.5C33.6591 18 33.8086 18.0757 33.9028 18.2038C33.9971 18.332 34.0247 18.4973 33.9772 18.6491L31.4772 26.6491C31.412 26.8579 31.2187 27 31 27H18.5C18.2706 27 18.0706 26.8439 18.0149 26.6213L15.1096 15H12.5C12.2239 15 12 14.7761 12 14.5ZM17.1404 19L18.8904 26H30.6324L32.8199 19H17.1404Z" fill="#0A4ECB"/>
<path fill-rule="evenodd" clip-rule="evenodd" d="M20.5 32C21.3284 32 22 31.3284 22 30.5C22 29.6716 21.3284 29 20.5 29C19.6716 29 19 29.6716 19 30.5C19 31.3284 19.6716 32 20.5 32ZM20.5 33C21.8807 33 23 31.8807 23 30.5C23 29.1193 21.8807 28 20.5 28C19.1193 28 18 29.1193 18 30.5C18 31.8807 19.1193 33 20.5 33Z" fill="#0A4ECB"/>
<path fill-rule="evenodd" clip-rule="evenodd" d="M28.5 32C29.3284 32 30 31.3284 30 30.5C30 29.6716 29.3284 29 28.5 29C27.6716 29 27 29.6716 27 30.5C27 31.3284 27.6716 32 28.5 32ZM28.5 33C29.8807 33 31 31.8807 31 30.5C31 29.1193 29.8807 28 28.5 28C27.1193 28 26 29.1193 26 30.5C26 31.8807 27.1193 33 28.5 33Z" fill="#0A4ECB"/>
</g>
</g>
</svg>
