<svg width="220" height="53" viewBox="0 0 220 53" fill="none" xmlns="http://www.w3.org/2000/svg">
<g id="Group 1">
<path id="Union" fill-rule="evenodd" clip-rule="evenodd" d="M0 17.452V35.0095C0 38.1471 1.67154 41.045 4.38194 42.6063L19.4738 51.3001C22.1528 52.8434 25.4447 52.849 28.129 51.315L43.3761 42.6012C46.1011 41.0438 47.7839 38.1378 47.7839 34.9895V17.472C47.7839 14.3237 46.1011 11.4177 43.3761 9.86036L28.129 1.14656C25.4448 -0.387476 22.1528 -0.381817 19.4738 1.16142L4.38193 9.8552C1.67154 11.4165 0 14.3144 0 17.452ZM3.79237 35.0095V17.452C3.79237 15.6786 4.73715 14.0406 6.26912 13.1581L9.67055 11.1987V41.2628L6.26912 39.3034C4.73716 38.4209 3.79237 36.7829 3.79237 35.0095ZM17.2553 45.632L21.361 47.9972C22.8752 48.8694 24.7359 48.8726 26.253 48.0055L39.9507 40.1773H17.0657C16.0184 40.1773 15.1695 39.3248 15.1695 38.2733C15.1695 37.2218 16.0184 36.3694 17.0657 36.3694H43.7963C43.9242 35.927 43.9915 35.4631 43.9915 34.9895V20.7569H17.0657C16.0184 20.7569 15.1695 19.9044 15.1695 18.8529C15.1695 17.8014 16.0184 16.9489 17.0657 16.9489H43.964C43.7977 15.3753 42.8881 13.963 41.5002 13.1698L26.253 4.45598C24.7359 3.58892 22.8752 3.59211 21.361 4.46437L17.2553 6.82947V15.4258C15.3703 15.4258 13.8422 16.9602 13.8422 18.8529C13.8422 20.7457 15.3703 22.28 17.2553 22.28V34.8462C15.3703 34.8462 13.8422 36.3806 13.8422 38.2733C13.8422 40.1661 15.3703 41.7004 17.2553 41.7004V45.632Z" fill="#0A4ECB"/>
<g id="SPORTOVA">
<path d="M64.975 30.042C63.4883 30.042 62.0455 29.8584 60.6463 29.4912C59.2471 29.124 58.1103 28.6343 57.2358 28.0223L58.9411 24.1926C59.7631 24.7347 60.7163 25.1719 61.8006 25.5041C62.885 25.8364 63.9518 26.0025 65.0012 26.0025C66.995 26.0025 67.9919 25.5041 67.9919 24.5074C67.9919 23.9827 67.7033 23.598 67.1262 23.3532C66.5665 23.0909 65.6571 22.8198 64.3978 22.54C63.0161 22.2428 61.8618 21.928 60.9349 21.5957C60.0079 21.246 59.2122 20.6951 58.5476 19.9432C57.883 19.1912 57.5507 18.177 57.5507 16.9004C57.5507 15.7813 57.8567 14.7757 58.4689 13.8839C59.081 12.9746 59.9904 12.2576 61.1972 11.733C62.4215 11.2084 63.9168 10.946 65.6833 10.946C66.8901 10.946 68.0794 11.0859 69.2512 11.3657C70.423 11.628 71.4548 12.0215 72.3468 12.5461L70.7465 16.402C68.9976 15.4577 67.3011 14.9856 65.6571 14.9856C64.6252 14.9856 63.8731 15.143 63.4009 15.4577C62.9287 15.755 62.6926 16.1485 62.6926 16.6381C62.6926 17.1278 62.9724 17.495 63.5321 17.7398C64.0917 17.9846 64.9924 18.2382 66.2342 18.5005C67.6334 18.7978 68.7877 19.1213 69.6971 19.471C70.6241 19.8033 71.4199 20.3454 72.0845 21.0974C72.7665 21.8318 73.1076 22.8373 73.1076 24.1139C73.1076 25.2156 72.8015 26.2123 72.1894 27.1042C71.5773 27.996 70.6591 28.713 69.4348 29.2551C68.2105 29.7797 66.7239 30.042 64.975 30.042Z" fill="#F04716"/>
<path d="M84.9514 11.3133C86.6129 11.3133 88.0557 11.5931 89.28 12.1527C90.5043 12.6948 91.4487 13.4817 92.1133 14.5134C92.7779 15.5277 93.1102 16.7256 93.1102 18.107C93.1102 19.4885 92.7779 20.6864 92.1133 21.7007C91.4487 22.7149 90.5043 23.5018 89.28 24.0614C88.0557 24.6035 86.6129 24.8746 84.9514 24.8746H81.7508V29.6748H76.5564V11.3133H84.9514ZM84.6365 20.7826C85.7034 20.7826 86.5079 20.5553 87.0501 20.1006C87.5923 19.6284 87.8634 18.9639 87.8634 18.107C87.8634 17.2502 87.5923 16.5857 87.0501 16.1135C86.5079 15.6414 85.7034 15.4053 84.6365 15.4053H81.7508V20.7826H84.6365Z" fill="#F04716"/>
<path d="M106.209 30.042C104.268 30.042 102.519 29.6311 100.962 28.8092C99.4232 27.9873 98.2077 26.8506 97.3157 25.3992C96.4412 23.9478 96.004 22.3127 96.004 20.494C96.004 18.6754 96.4412 17.0403 97.3157 15.5889C98.2077 14.1375 99.4232 13.0008 100.962 12.1789C102.519 11.357 104.268 10.946 106.209 10.946C108.15 10.946 109.891 11.357 111.43 12.1789C112.986 13.0008 114.202 14.1375 115.076 15.5889C115.968 17.0403 116.414 18.6754 116.414 20.494C116.414 22.3127 115.968 23.9478 115.076 25.3992C114.202 26.8506 112.986 27.9873 111.43 28.8092C109.891 29.6311 108.15 30.042 106.209 30.042ZM106.209 25.7402C107.136 25.7402 107.976 25.5216 108.728 25.0844C109.48 24.6472 110.074 24.0352 110.512 23.2483C110.949 22.4439 111.167 21.5258 111.167 20.494C111.167 19.4623 110.949 18.553 110.512 17.766C110.074 16.9616 109.48 16.3408 108.728 15.9037C107.976 15.4665 107.136 15.2479 106.209 15.2479C105.282 15.2479 104.443 15.4665 103.691 15.9037C102.939 16.3408 102.344 16.9616 101.907 17.766C101.469 18.553 101.251 19.4623 101.251 20.494C101.251 21.5258 101.469 22.4439 101.907 23.2483C102.344 24.0352 102.939 24.6472 103.691 25.0844C104.443 25.5216 105.282 25.7402 106.209 25.7402Z" fill="#F04716"/>
<path d="M128.212 24.7959H125.379V29.6748H120.184V11.3133H128.579C130.241 11.3133 131.684 11.5931 132.908 12.1527C134.132 12.6948 135.077 13.4817 135.741 14.5134C136.406 15.5277 136.738 16.7256 136.738 18.107C136.738 19.4361 136.423 20.599 135.794 21.5957C135.182 22.575 134.298 23.3445 133.144 23.904L137.105 29.6748H131.544L128.212 24.7959ZM131.491 18.107C131.491 17.2502 131.22 16.5857 130.678 16.1135C130.136 15.6414 129.331 15.4053 128.264 15.4053H125.379V20.7826H128.264C129.331 20.7826 130.136 20.5553 130.678 20.1006C131.22 19.6284 131.491 18.9639 131.491 18.107Z" fill="#F04716"/>
<path d="M144.306 15.4315H138.665V11.3133H155.114V15.4315H149.5V29.6748H144.306V15.4315Z" fill="#F04716"/>
<path d="M167.103 30.042C165.162 30.042 163.413 29.6311 161.857 28.8092C160.318 27.9873 159.102 26.8506 158.21 25.3992C157.336 23.9478 156.898 22.3127 156.898 20.494C156.898 18.6754 157.336 17.0403 158.21 15.5889C159.102 14.1375 160.318 13.0008 161.857 12.1789C163.413 11.357 165.162 10.946 167.103 10.946C169.045 10.946 170.785 11.357 172.324 12.1789C173.881 13.0008 175.096 14.1375 175.971 15.5889C176.863 17.0403 177.309 18.6754 177.309 20.494C177.309 22.3127 176.863 23.9478 175.971 25.3992C175.096 26.8506 173.881 27.9873 172.324 28.8092C170.785 29.6311 169.045 30.042 167.103 30.042ZM167.103 25.7402C168.03 25.7402 168.87 25.5216 169.622 25.0844C170.374 24.6472 170.969 24.0352 171.406 23.2483C171.843 22.4439 172.062 21.5258 172.062 20.494C172.062 19.4623 171.843 18.553 171.406 17.766C170.969 16.9616 170.374 16.3408 169.622 15.9037C168.87 15.4665 168.03 15.2479 167.103 15.2479C166.177 15.2479 165.337 15.4665 164.585 15.9037C163.833 16.3408 163.238 16.9616 162.801 17.766C162.364 18.553 162.145 19.4623 162.145 20.494C162.145 21.5258 162.364 22.4439 162.801 23.2483C163.238 24.0352 163.833 24.6472 164.585 25.0844C165.337 25.5216 166.177 25.7402 167.103 25.7402Z" fill="#F04716"/>
<path d="M199.064 11.3133L191.194 29.6748H186.078L178.234 11.3133H183.849L188.833 23.2745L193.923 11.3133H199.064Z" fill="#F04716"/>
<path d="M212.852 26.1074H205.087L203.644 29.6748H198.345L206.451 11.3133H211.567L219.699 29.6748H214.295L212.852 26.1074ZM211.331 22.2777L208.97 16.402L206.608 22.2777H211.331Z" fill="#F04716"/>
</g>
<g id="&#209;&#129;&#208;&#191;&#208;&#190;&#209;&#128;&#209;&#130;&#208;&#184;&#208;&#178;&#208;&#189;&#209;&#139;&#208;&#181; &#208;&#186;&#208;&#190;&#208;&#188;&#208;&#191;&#208;&#187;&#208;&#181;&#208;&#186;&#209;&#129;&#209;&#139;">
<path d="M60.5919 41.7047C60.0837 41.7047 59.6243 41.5923 59.2138 41.3676C58.8082 41.1428 58.4881 40.8325 58.2536 40.4368C58.0239 40.0361 57.9091 39.589 57.9091 39.0955C57.9091 38.602 58.0239 38.1574 58.2536 37.7616C58.4881 37.3609 58.8107 37.0482 59.2212 36.8235C59.6316 36.5987 60.091 36.4863 60.5992 36.4863C60.9804 36.4863 61.3322 36.5498 61.6548 36.6769C61.9773 36.8039 62.251 36.9896 62.4758 37.2339L62.1312 37.5784C61.7305 37.1728 61.2247 36.9701 60.6139 36.9701C60.2083 36.9701 59.8393 37.0629 59.507 37.2486C59.1747 37.4342 58.9133 37.6883 58.7227 38.0108C58.537 38.3333 58.4442 38.6949 58.4442 39.0955C58.4442 39.4962 58.537 39.8578 58.7227 40.1802C58.9133 40.5027 59.1747 40.7568 59.507 40.9425C59.8393 41.1281 60.2083 41.221 60.6139 41.221C61.2296 41.221 61.7354 41.0158 62.1312 40.6053L62.4758 40.9498C62.251 41.1941 61.9749 41.3822 61.6474 41.5141C61.3249 41.6412 60.9731 41.7047 60.5919 41.7047Z" fill="#0A4ECB"/>
<path d="M70.6989 36.5303V41.6607H70.1638V36.9994H66.9165V41.6607H66.3814V36.5303H70.6989Z" fill="#0A4ECB"/>
<path d="M77.4661 41.7047C76.9578 41.7047 76.496 41.5923 76.0807 41.3676C75.6702 41.1379 75.3477 40.8252 75.1131 40.4294C74.8834 40.0337 74.7686 39.589 74.7686 39.0955C74.7686 38.602 74.8834 38.1574 75.1131 37.7616C75.3477 37.3658 75.6702 37.0556 76.0807 36.8308C76.496 36.6012 76.9578 36.4863 77.4661 36.4863C77.9743 36.4863 78.4312 36.5987 78.8368 36.8235C79.2473 37.0482 79.5698 37.3609 79.8044 37.7616C80.039 38.1574 80.1562 38.602 80.1562 39.0955C80.1562 39.589 80.039 40.0361 79.8044 40.4368C79.5698 40.8325 79.2473 41.1428 78.8368 41.3676C78.4312 41.5923 77.9743 41.7047 77.4661 41.7047ZM77.4661 41.221C77.8717 41.221 78.2382 41.1306 78.5656 40.9498C78.893 40.7641 79.1496 40.5101 79.3353 40.1876C79.521 39.8602 79.6138 39.4962 79.6138 39.0955C79.6138 38.6949 79.521 38.3333 79.3353 38.0108C79.1496 37.6834 78.893 37.4294 78.5656 37.2486C78.2382 37.0629 77.8717 36.9701 77.4661 36.9701C77.0605 36.9701 76.6915 37.0629 76.3592 37.2486C76.0318 37.4294 75.7728 37.6834 75.5822 38.0108C75.3965 38.3333 75.3037 38.6949 75.3037 39.0955C75.3037 39.4962 75.3965 39.8602 75.5822 40.1876C75.7728 40.5101 76.0318 40.7641 76.3592 40.9498C76.6915 41.1306 77.0605 41.221 77.4661 41.221Z" fill="#0A4ECB"/>
<path d="M86.1566 36.5303C86.8115 36.5303 87.3246 36.6867 87.696 36.9994C88.0674 37.3121 88.2531 37.7421 88.2531 38.2893C88.2531 38.8366 88.0674 39.2665 87.696 39.5792C87.3246 39.8871 86.8115 40.041 86.1566 40.041H84.7786V41.6607H84.2361V36.5303H86.1566ZM86.142 39.5646C86.6502 39.5646 87.0387 39.4546 87.3075 39.2348C87.5762 39.01 87.7106 38.6949 87.7106 38.2893C87.7106 37.874 87.5762 37.5564 87.3075 37.3365C87.0387 37.1118 86.6502 36.9994 86.142 36.9994H84.7786V39.5646H86.142Z" fill="#0A4ECB"/>
<path d="M95.3396 36.9994H93.5363V41.6607H93.0012V36.9994H91.198V36.5303H95.3396V36.9994Z" fill="#0A4ECB"/>
<path d="M99.0771 36.5303H99.6123V40.7812L102.896 36.5303H103.387V41.6607H102.852V37.4171L99.5683 41.6607H99.0771V36.5303Z" fill="#0A4ECB"/>
<path d="M110.946 39.0149C111.303 39.0882 111.574 39.2323 111.76 39.4473C111.946 39.6574 112.038 39.9335 112.038 40.2755C112.038 40.7202 111.88 41.0622 111.562 41.3016C111.249 41.541 110.787 41.6607 110.177 41.6607H107.904V36.5303H110.037C110.585 36.5303 111.012 36.6427 111.32 36.8674C111.628 37.0922 111.782 37.4171 111.782 37.8422C111.782 38.1305 111.709 38.3748 111.562 38.5751C111.415 38.7706 111.21 38.9172 110.946 39.0149ZM108.439 38.8537H110.008C110.404 38.8537 110.707 38.773 110.917 38.6118C111.132 38.4505 111.24 38.216 111.24 37.9082C111.24 37.6004 111.132 37.3658 110.917 37.2046C110.707 37.0433 110.404 36.9627 110.008 36.9627H108.439V38.8537ZM110.177 41.2283C111.061 41.2283 111.503 40.8985 111.503 40.2389C111.503 39.5939 111.061 39.2714 110.177 39.2714H108.439V41.2283H110.177Z" fill="#0A4ECB"/>
<path d="M120.468 36.5303V41.6607H119.933V39.2934H116.723V41.6607H116.18V36.5303H116.723V38.817H119.933V36.5303H120.468Z" fill="#0A4ECB"/>
<path d="M127.134 38.3626C127.74 38.3626 128.201 38.4994 128.519 38.773C128.842 39.0467 129.003 39.4473 129.003 39.975C129.003 40.5272 128.832 40.9474 128.49 41.2356C128.153 41.519 127.664 41.6607 127.024 41.6607H124.986V36.5303H125.521V38.3626H127.134ZM127.009 41.2283C127.483 41.2283 127.842 41.1233 128.087 40.9132C128.336 40.7031 128.46 40.3928 128.46 39.9823C128.46 39.1957 127.977 38.8024 127.009 38.8024H125.521V41.2283H127.009ZM129.89 36.5303H130.425V41.6607H129.89V36.5303Z" fill="#0A4ECB"/>
<path d="M138.565 41.1917V41.6607H134.937V36.5303H138.455V36.9994H135.479V38.8243H138.133V39.2861H135.479V41.1917H138.565Z" fill="#0A4ECB"/>
<path d="M148.959 39.3081H147.786V41.6607H147.258V36.5303H147.786V38.8317H148.959L150.696 36.5303H151.282L149.377 39.0222L151.392 41.6607H150.769L148.959 39.3081Z" fill="#0A4ECB"/>
<path d="M157.255 41.7047C156.747 41.7047 156.285 41.5923 155.869 41.3676C155.459 41.1379 155.136 40.8252 154.902 40.4294C154.672 40.0337 154.557 39.589 154.557 39.0955C154.557 38.602 154.672 38.1574 154.902 37.7616C155.136 37.3658 155.459 37.0556 155.869 36.8308C156.285 36.6012 156.747 36.4863 157.255 36.4863C157.763 36.4863 158.22 36.5987 158.625 36.8235C159.036 37.0482 159.358 37.3609 159.593 37.7616C159.828 38.1574 159.945 38.602 159.945 39.0955C159.945 39.589 159.828 40.0361 159.593 40.4368C159.358 40.8325 159.036 41.1428 158.625 41.3676C158.22 41.5923 157.763 41.7047 157.255 41.7047ZM157.255 41.221C157.66 41.221 158.027 41.1306 158.354 40.9498C158.682 40.7641 158.938 40.5101 159.124 40.1876C159.31 39.8602 159.402 39.4962 159.402 39.0955C159.402 38.6949 159.31 38.3333 159.124 38.0108C158.938 37.6834 158.682 37.4294 158.354 37.2486C158.027 37.0629 157.66 36.9701 157.255 36.9701C156.849 36.9701 156.48 37.0629 156.148 37.2486C155.82 37.4294 155.561 37.6834 155.371 38.0108C155.185 38.3333 155.092 38.6949 155.092 39.0955C155.092 39.4962 155.185 39.8602 155.371 40.1876C155.561 40.5101 155.82 40.7641 156.148 40.9498C156.48 41.1306 156.849 41.221 157.255 41.221Z" fill="#0A4ECB"/>
<path d="M169.354 36.5303V41.6607H168.833V37.5564L166.818 41.0084H166.561L164.545 37.5784V41.6607H164.025V36.5303H164.472L166.7 40.3342L168.907 36.5303H169.354Z" fill="#0A4ECB"/>
<path d="M178.186 36.5303V41.6607H177.651V36.9994H174.404V41.6607H173.868V36.5303H178.186Z" fill="#0A4ECB"/>
<path d="M186.648 36.5303V41.6607H186.113V36.9994H183.636L183.577 38.7144C183.552 39.4229 183.494 39.9946 183.401 40.4294C183.313 40.8594 183.176 41.1819 182.99 41.3969C182.805 41.607 182.558 41.712 182.25 41.712C182.118 41.712 181.981 41.6949 181.84 41.6607L181.884 41.177C181.967 41.1966 182.047 41.2063 182.126 41.2063C182.341 41.2063 182.514 41.1208 182.646 40.9498C182.783 40.7788 182.885 40.5149 182.954 40.1583C183.022 39.7967 183.069 39.3203 183.093 38.7291L183.166 36.5303H186.648Z" fill="#0A4ECB"/>
<path d="M194.793 41.1917V41.6607H191.165V36.5303H194.683V36.9994H191.707V38.8243H194.361V39.2861H191.707V41.1917H194.793Z" fill="#0A4ECB"/>
<path d="M200.483 39.3081H199.31V41.6607H198.782V36.5303H199.31V38.8317H200.483L202.22 36.5303H202.806L200.901 39.0222L202.916 41.6607H202.293L200.483 39.3081Z" fill="#0A4ECB"/>
<path d="M208.771 41.7047C208.263 41.7047 207.804 41.5923 207.393 41.3676C206.988 41.1428 206.668 40.8325 206.433 40.4368C206.203 40.0361 206.089 39.589 206.089 39.0955C206.089 38.602 206.203 38.1574 206.433 37.7616C206.668 37.3609 206.99 37.0482 207.401 36.8235C207.811 36.5987 208.27 36.4863 208.779 36.4863C209.16 36.4863 209.512 36.5498 209.834 36.6769C210.157 36.8039 210.43 36.9896 210.655 37.2339L210.311 37.5784C209.91 37.1728 209.404 36.9701 208.793 36.9701C208.388 36.9701 208.019 37.0629 207.686 37.2486C207.354 37.4342 207.093 37.6883 206.902 38.0108C206.716 38.3333 206.624 38.6949 206.624 39.0955C206.624 39.4962 206.716 39.8578 206.902 40.1802C207.093 40.5027 207.354 40.7568 207.686 40.9425C208.019 41.1281 208.388 41.221 208.793 41.221C209.409 41.221 209.915 41.0158 210.311 40.6053L210.655 40.9498C210.43 41.1941 210.154 41.3822 209.827 41.5141C209.504 41.6412 209.153 41.7047 208.771 41.7047Z" fill="#0A4ECB"/>
<path d="M216.709 38.3626C217.315 38.3626 217.776 38.4994 218.094 38.773C218.417 39.0467 218.578 39.4473 218.578 39.975C218.578 40.5272 218.407 40.9474 218.065 41.2356C217.728 41.519 217.239 41.6607 216.599 41.6607H214.561V36.5303H215.096V38.3626H216.709ZM216.584 41.2283C217.058 41.2283 217.417 41.1233 217.662 40.9132C217.911 40.7031 218.035 40.3928 218.035 39.9823C218.035 39.1957 217.552 38.8024 216.584 38.8024H215.096V41.2283H216.584ZM219.465 36.5303H220V41.6607H219.465V36.5303Z" fill="#0A4ECB"/>
</g>
</g>
</svg>
