<svg width="193" height="24" viewBox="0 0 193 24" fill="none" xmlns="http://www.w3.org/2000/svg">
<g id="SPORTOVA">
<path d="M9.78851 23.5043C8.0316 23.5043 6.32637 23.2873 4.67282 22.8533C3.01926 22.4193 1.67575 21.8406 0.642273 21.1173L2.65754 16.5913C3.62901 17.2319 4.75549 17.7486 6.037 18.1413C7.31851 18.5339 8.57934 18.7303 9.81951 18.7303C12.1758 18.7303 13.354 18.1413 13.354 16.9633C13.354 16.3433 13.0129 15.8886 12.3309 15.5993C11.6694 15.2893 10.5946 14.9689 9.10642 14.6383C7.47353 14.2869 6.10934 13.9149 5.01386 13.5223C3.91838 13.1089 2.97792 12.4579 2.19248 11.5693C1.40704 10.6806 1.01432 9.48195 1.01432 7.97328C1.01432 6.65061 1.37604 5.46228 2.09947 4.40828C2.8229 3.33361 3.89771 2.48628 5.3239 1.86628C6.77077 1.24628 8.53801 0.936279 10.6256 0.936279C12.0518 0.936279 13.4573 1.10161 14.8422 1.43228C16.227 1.74228 17.4465 2.20728 18.5007 2.82728L16.6094 7.38428C14.5425 6.26828 12.5375 5.71028 10.5946 5.71028C9.37512 5.71028 8.48633 5.89628 7.92826 6.26828C7.37018 6.61961 7.09114 7.08461 7.09114 7.66328C7.09114 8.24195 7.42186 8.67595 8.08328 8.96528C8.7447 9.25461 9.80918 9.55428 11.2767 9.86428C12.9303 10.2156 14.2944 10.5979 15.3693 11.0113C16.4647 11.4039 17.4052 12.0446 18.1906 12.9333C18.9967 13.8013 19.3998 14.9896 19.3998 16.4983C19.3998 17.8003 19.0381 18.9783 18.3147 20.0323C17.5912 21.0863 16.5061 21.9336 15.0592 22.5743C13.6124 23.1943 11.8555 23.5043 9.78851 23.5043Z" fill="#F04716"/>
<path d="M33.397 1.37028C35.3606 1.37028 37.0658 1.70095 38.5127 2.36228C39.9595 3.00295 41.0757 3.93295 41.8611 5.15228C42.6466 6.35095 43.0393 7.76661 43.0393 9.39928C43.0393 11.0319 42.6466 12.4476 41.8611 13.6463C41.0757 14.8449 39.9595 15.7749 38.5127 16.4363C37.0658 17.0769 35.3606 17.3973 33.397 17.3973H29.6145V23.0703H23.4756V1.37028H33.397ZM33.0249 12.5613C34.2858 12.5613 35.2366 12.2926 35.8773 11.7553C36.5181 11.1973 36.8384 10.4119 36.8384 9.39928C36.8384 8.38661 36.5181 7.60128 35.8773 7.04328C35.2366 6.48528 34.2858 6.20628 33.0249 6.20628H29.6145V12.5613H33.0249Z" fill="#F04716"/>
<path d="M58.5198 23.5043C56.2255 23.5043 54.1586 23.0186 52.319 22.0473C50.5001 21.0759 49.0635 19.7326 48.0094 18.0173C46.9759 16.3019 46.4592 14.3696 46.4592 12.2203C46.4592 10.0709 46.9759 8.13861 48.0094 6.42328C49.0635 4.70795 50.5001 3.36461 52.319 2.39328C54.1586 1.42195 56.2255 0.936279 58.5198 0.936279C60.8141 0.936279 62.8707 1.42195 64.6897 2.39328C66.5292 3.36461 67.9658 4.70795 68.9992 6.42328C70.0534 8.13861 70.5805 10.0709 70.5805 12.2203C70.5805 14.3696 70.0534 16.3019 68.9992 18.0173C67.9658 19.7326 66.5292 21.0759 64.6897 22.0473C62.8707 23.0186 60.8141 23.5043 58.5198 23.5043ZM58.5198 18.4203C59.6153 18.4203 60.6074 18.1619 61.4962 17.6453C62.385 17.1286 63.0878 16.4053 63.6045 15.4753C64.1212 14.5246 64.3796 13.4396 64.3796 12.2203C64.3796 11.0009 64.1212 9.92628 63.6045 8.99628C63.0878 8.04561 62.385 7.31195 61.4962 6.79528C60.6074 6.27861 59.6153 6.02028 58.5198 6.02028C57.4243 6.02028 56.4322 6.27861 55.5434 6.79528C54.6546 7.31195 53.9519 8.04561 53.4351 8.99628C52.9184 9.92628 52.66 11.0009 52.66 12.2203C52.66 13.4396 52.9184 14.5246 53.4351 15.4753C53.9519 16.4053 54.6546 17.1286 55.5434 17.6453C56.4322 18.1619 57.4243 18.4203 58.5198 18.4203Z" fill="#F04716"/>
<path d="M84.5231 17.3043H81.1747V23.0703H75.0358V1.37028H84.9572C86.9208 1.37028 88.626 1.70095 90.0729 2.36228C91.5197 3.00295 92.6359 3.93295 93.4213 5.15228C94.2068 6.35095 94.5995 7.76661 94.5995 9.39928C94.5995 10.9699 94.2274 12.3443 93.4833 13.5223C92.7599 14.6796 91.7161 15.5889 90.3519 16.2503L95.0335 23.0703H88.4607L84.5231 17.3043ZM88.3987 9.39928C88.3987 8.38661 88.0783 7.60128 87.4375 7.04328C86.7968 6.48528 85.846 6.20628 84.5851 6.20628H81.1747V12.5613H84.5851C85.846 12.5613 86.7968 12.2926 87.4375 11.7553C88.0783 11.1973 88.3987 10.4119 88.3987 9.39928Z" fill="#F04716"/>
<path d="M103.543 6.23728H96.8773V1.37028H116.317V6.23728H109.682V23.0703H103.543V6.23728Z" fill="#F04716"/>
<path d="M130.486 23.5043C128.192 23.5043 126.125 23.0186 124.285 22.0473C122.466 21.0759 121.03 19.7326 119.975 18.0173C118.942 16.3019 118.425 14.3696 118.425 12.2203C118.425 10.0709 118.942 8.13861 119.975 6.42328C121.03 4.70795 122.466 3.36461 124.285 2.39328C126.125 1.42195 128.192 0.936279 130.486 0.936279C132.78 0.936279 134.837 1.42195 136.656 2.39328C138.495 3.36461 139.932 4.70795 140.965 6.42328C142.019 8.13861 142.546 10.0709 142.546 12.2203C142.546 14.3696 142.019 16.3019 140.965 18.0173C139.932 19.7326 138.495 21.0759 136.656 22.0473C134.837 23.0186 132.78 23.5043 130.486 23.5043ZM130.486 18.4203C131.581 18.4203 132.573 18.1619 133.462 17.6453C134.351 17.1286 135.054 16.4053 135.571 15.4753C136.087 14.5246 136.346 13.4396 136.346 12.2203C136.346 11.0009 136.087 9.92628 135.571 8.99628C135.054 8.04561 134.351 7.31195 133.462 6.79528C132.573 6.27861 131.581 6.02028 130.486 6.02028C129.39 6.02028 128.398 6.27861 127.509 6.79528C126.621 7.31195 125.918 8.04561 125.401 8.99628C124.884 9.92628 124.626 11.0009 124.626 12.2203C124.626 13.4396 124.884 14.5246 125.401 15.4753C125.918 16.4053 126.621 17.1286 127.509 17.6453C128.398 18.1619 129.39 18.4203 130.486 18.4203Z" fill="#F04716"/>
<path d="M168.258 1.37028L158.957 23.0703H152.911L143.641 1.37028H150.275L156.166 15.5063L162.181 1.37028H168.258Z" fill="#F04716"/>
<path d="M184.553 18.8543H175.375L173.67 23.0703H167.407L176.988 1.37028H183.033L192.645 23.0703H186.258L184.553 18.8543ZM182.754 14.3283L179.964 7.38428L177.174 14.3283H182.754Z" fill="#F04716"/>
</g>
</svg>
