<svg width="192" height="7" viewBox="0 0 192 7" fill="none" xmlns="http://www.w3.org/2000/svg">
<g id="&#209;&#129;&#208;&#191;&#208;&#190;&#209;&#128;&#209;&#130;&#208;&#184;&#208;&#178;&#208;&#189;&#209;&#139;&#208;&#181; &#208;&#186;&#208;&#190;&#208;&#188;&#208;&#191;&#208;&#187;&#208;&#181;&#208;&#186;&#209;&#129;&#209;&#139;">
<path d="M3.60874 6.28729C3.00811 6.28729 2.46524 6.15448 1.98011 5.88885C1.50076 5.62323 1.12248 5.25654 0.845268 4.78881C0.57383 4.3153 0.43811 3.78693 0.43811 3.20371C0.43811 2.62048 0.57383 2.095 0.845268 1.62726C1.12248 1.15375 1.50365 0.784186 1.98878 0.518558C2.4739 0.252931 3.01678 0.120117 3.61741 0.120117C4.06788 0.120117 4.4837 0.195186 4.86487 0.345323C5.24604 0.49546 5.56946 0.714891 5.83512 1.00362L5.42796 1.41072C4.95439 0.931436 4.35664 0.691794 3.63473 0.691794C3.15538 0.691794 2.71935 0.801509 2.32663 1.02094C1.93391 1.24037 1.62493 1.54065 1.3997 1.92176C1.18024 2.30288 1.0705 2.7302 1.0705 3.20371C1.0705 3.67722 1.18024 4.10453 1.3997 4.48565C1.62493 4.86676 1.93391 5.16704 2.32663 5.38647C2.71935 5.6059 3.15538 5.71562 3.63473 5.71562C4.36242 5.71562 4.96016 5.47309 5.42796 4.98803L5.83512 5.39513C5.56946 5.68386 5.24315 5.90618 4.85621 6.06209C4.47504 6.21223 4.05922 6.28729 3.60874 6.28729Z" fill="#0A4ECB"/>
<path d="M15.5534 0.172087V6.23532H14.921V0.726441H11.0833V6.23532H10.4509V0.172087H15.5534Z" fill="#0A4ECB"/>
<path d="M23.551 6.28729C22.9503 6.28729 22.4046 6.15448 21.9137 5.88885C21.4285 5.61745 21.0474 5.24788 20.7702 4.78015C20.4987 4.31241 20.363 3.78693 20.363 3.20371C20.363 2.62048 20.4987 2.095 20.7702 1.62726C21.0474 1.15953 21.4285 0.792847 21.9137 0.52722C22.4046 0.255818 22.9503 0.120117 23.551 0.120117C24.1516 0.120117 24.6916 0.252931 25.1709 0.518558C25.656 0.784186 26.0372 1.15375 26.3144 1.62726C26.5916 2.095 26.7303 2.62048 26.7303 3.20371C26.7303 3.78693 26.5916 4.3153 26.3144 4.78881C26.0372 5.25654 25.656 5.62323 25.1709 5.88885C24.6916 6.15448 24.1516 6.28729 23.551 6.28729ZM23.551 5.71562C24.0303 5.71562 24.4634 5.60879 24.8504 5.39513C25.2373 5.1757 25.5405 4.87543 25.76 4.49431C25.9795 4.10742 26.0892 3.67722 26.0892 3.20371C26.0892 2.7302 25.9795 2.30288 25.76 1.92176C25.5405 1.53487 25.2373 1.2346 24.8504 1.02094C24.4634 0.801509 24.0303 0.691794 23.551 0.691794C23.0716 0.691794 22.6356 0.801509 22.2429 1.02094C21.8559 1.2346 21.5498 1.53487 21.3246 1.92176C21.1051 2.30288 20.9954 2.7302 20.9954 3.20371C20.9954 3.67722 21.1051 4.10742 21.3246 4.49431C21.5498 4.87543 21.8559 5.1757 22.2429 5.39513C22.6356 5.60879 23.0716 5.71562 23.551 5.71562Z" fill="#0A4ECB"/>
<path d="M33.8216 0.172087C34.5955 0.172087 35.2019 0.356872 35.6408 0.726441C36.0797 1.09601 36.2992 1.60417 36.2992 2.25091C36.2992 2.89766 36.0797 3.40581 35.6408 3.77538C35.2019 4.13918 34.5955 4.32107 33.8216 4.32107H32.193V6.23532H31.5519V0.172087H33.8216ZM33.8043 3.75806C34.4049 3.75806 34.864 3.62813 35.1817 3.36828C35.4993 3.10265 35.6581 2.7302 35.6581 2.25091C35.6581 1.76008 35.4993 1.38473 35.1817 1.12488C34.864 0.859254 34.4049 0.726441 33.8043 0.726441H32.193V3.75806H33.8043Z" fill="#0A4ECB"/>
<path d="M44.6742 0.726441H42.5431V6.23532H41.9107V0.726441H39.7796V0.172087H44.6742V0.726441Z" fill="#0A4ECB"/>
<path d="M49.0913 0.172087H49.7237V5.19591L53.6047 0.172087H54.1851V6.23532H53.5527V1.22016L49.6717 6.23532H49.0913V0.172087Z" fill="#0A4ECB"/>
<path d="M63.1185 3.10843C63.5401 3.19504 63.8606 3.36539 64.0801 3.61947C64.2995 3.86777 64.4093 4.19403 64.4093 4.59825C64.4093 5.12373 64.2216 5.52795 63.8462 5.8109C63.4766 6.09385 62.9308 6.23532 62.2089 6.23532H59.5234V0.172087H62.0443C62.6911 0.172087 63.1965 0.304901 63.5603 0.570529C63.9242 0.836156 64.1061 1.22016 64.1061 1.72254C64.1061 2.06324 64.0194 2.35197 63.8462 2.58872C63.6729 2.8197 63.4304 2.99294 63.1185 3.10843ZM60.1558 2.91787H62.0096C62.4774 2.91787 62.8355 2.82259 63.0838 2.63203C63.338 2.44147 63.465 2.16429 63.465 1.8005C63.465 1.43671 63.338 1.15953 63.0838 0.96897C62.8355 0.778411 62.4774 0.683132 62.0096 0.683132H60.1558V2.91787ZM62.2089 5.72428C63.2542 5.72428 63.7769 5.3345 63.7769 4.55494C63.7769 3.79271 63.2542 3.41159 62.2089 3.41159H60.1558V5.72428H62.2089Z" fill="#0A4ECB"/>
<path d="M74.3718 0.172087V6.23532H73.7395V3.43757H69.9451V6.23532H69.304V0.172087H69.9451V2.87456H73.7395V0.172087H74.3718Z" fill="#0A4ECB"/>
<path d="M82.249 2.33753C82.9651 2.33753 83.5109 2.49922 83.8863 2.82259C84.2674 3.14596 84.458 3.61947 84.458 4.24312C84.458 4.89564 84.2559 5.39225 83.8516 5.73294C83.4531 6.06786 82.8756 6.23532 82.119 6.23532H79.7107V0.172087H80.3431V2.33753H82.249ZM82.1017 5.72428C82.6619 5.72428 83.0864 5.60013 83.3751 5.35182C83.6697 5.10352 83.817 4.73684 83.817 4.25178C83.817 3.32208 83.2452 2.85724 82.1017 2.85724H80.3431V5.72428H82.1017ZM85.5062 0.172087H86.1386V6.23532H85.5062V0.172087Z" fill="#0A4ECB"/>
<path d="M95.7591 5.68097V6.23532H91.471V0.172087H95.6292V0.726441H92.1121V2.88322H95.248V3.42891H92.1121V5.68097H95.7591Z" fill="#0A4ECB"/>
<path d="M108.042 3.4549H106.656V6.23532H106.033V0.172087H106.656V2.89188H108.042L110.095 0.172087H110.788L108.536 3.11709L110.918 6.23532H110.182L108.042 3.4549Z" fill="#0A4ECB"/>
<path d="M117.847 6.28729C117.246 6.28729 116.7 6.15448 116.209 5.88885C115.724 5.61745 115.343 5.24788 115.066 4.78015C114.794 4.31241 114.659 3.78693 114.659 3.20371C114.659 2.62048 114.794 2.095 115.066 1.62726C115.343 1.15953 115.724 0.792847 116.209 0.52722C116.7 0.255818 117.246 0.120117 117.847 0.120117C118.447 0.120117 118.987 0.252931 119.467 0.518558C119.952 0.784186 120.333 1.15375 120.61 1.62726C120.887 2.095 121.026 2.62048 121.026 3.20371C121.026 3.78693 120.887 4.3153 120.61 4.78881C120.333 5.25654 119.952 5.62323 119.467 5.88885C118.987 6.15448 118.447 6.28729 117.847 6.28729ZM117.847 5.71562C118.326 5.71562 118.759 5.60879 119.146 5.39513C119.533 5.1757 119.836 4.87543 120.056 4.49431C120.275 4.10742 120.385 3.67722 120.385 3.20371C120.385 2.7302 120.275 2.30288 120.056 1.92176C119.836 1.53487 119.533 1.2346 119.146 1.02094C118.759 0.801509 118.326 0.691794 117.847 0.691794C117.367 0.691794 116.931 0.801509 116.539 1.02094C116.152 1.2346 115.846 1.53487 115.62 1.92176C115.401 2.30288 115.291 2.7302 115.291 3.20371C115.291 3.67722 115.401 4.10742 115.62 4.49431C115.846 4.87543 116.152 5.1757 116.539 5.39513C116.931 5.60879 117.367 5.71562 117.847 5.71562Z" fill="#0A4ECB"/>
<path d="M132.146 0.172087V6.23532H131.531V1.38474L129.148 5.46443H128.845L126.463 1.41072V6.23532H125.848V0.172087H126.376L129.01 4.66754L131.617 0.172087H132.146Z" fill="#0A4ECB"/>
<path d="M142.583 0.172087V6.23532H141.951V0.726441H138.113V6.23532H137.481V0.172087H142.583Z" fill="#0A4ECB"/>
<path d="M152.584 0.172087V6.23532H151.952V0.726441H149.024L148.955 2.75329C148.926 3.5906 148.856 4.26622 148.747 4.78015C148.643 5.2883 148.481 5.66942 148.262 5.9235C148.042 6.1718 147.751 6.29596 147.387 6.29596C147.231 6.29596 147.069 6.27574 146.902 6.23532L146.954 5.66365C147.052 5.68675 147.147 5.69829 147.239 5.69829C147.493 5.69829 147.699 5.59724 147.854 5.39513C148.016 5.19302 148.137 4.8812 148.218 4.45966C148.299 4.03235 148.354 3.46933 148.383 2.77062L148.47 0.172087H152.584Z" fill="#0A4ECB"/>
<path d="M162.21 5.68097V6.23532H157.922V0.172087H162.08V0.726441H158.563V2.88322H161.699V3.42891H158.563V5.68097H162.21Z" fill="#0A4ECB"/>
<path d="M168.934 3.4549H167.548V6.23532H166.924V0.172087H167.548V2.89188H168.934L170.987 0.172087H171.68L169.428 3.11709L171.81 6.23532H171.074L168.934 3.4549Z" fill="#0A4ECB"/>
<path d="M178.73 6.28729C178.129 6.28729 177.586 6.15448 177.101 5.88885C176.622 5.62323 176.244 5.25654 175.966 4.78881C175.695 4.3153 175.559 3.78693 175.559 3.20371C175.559 2.62048 175.695 2.095 175.966 1.62726C176.244 1.15375 176.625 0.784186 177.11 0.518558C177.595 0.252931 178.138 0.120117 178.739 0.120117C179.189 0.120117 179.605 0.195186 179.986 0.345323C180.367 0.49546 180.691 0.714891 180.956 1.00362L180.549 1.41072C180.076 0.931436 179.478 0.691794 178.756 0.691794C178.277 0.691794 177.841 0.801509 177.448 1.02094C177.055 1.24037 176.746 1.54065 176.521 1.92176C176.301 2.30288 176.192 2.7302 176.192 3.20371C176.192 3.67722 176.301 4.10453 176.521 4.48565C176.746 4.86676 177.055 5.16704 177.448 5.38647C177.841 5.6059 178.277 5.71562 178.756 5.71562C179.484 5.71562 180.081 5.47309 180.549 4.98803L180.956 5.39513C180.691 5.68386 180.364 5.90618 179.977 6.06209C179.596 6.21223 179.18 6.28729 178.73 6.28729Z" fill="#0A4ECB"/>
<path d="M188.11 2.33753C188.826 2.33753 189.372 2.49922 189.748 2.82259C190.129 3.14596 190.319 3.61947 190.319 4.24312C190.319 4.89564 190.117 5.39225 189.713 5.73294C189.315 6.06786 188.737 6.23532 187.98 6.23532H185.572V0.172087H186.205V2.33753H188.11ZM187.963 5.72428C188.523 5.72428 188.948 5.60013 189.237 5.35182C189.531 5.10352 189.678 4.73684 189.678 4.25178C189.678 3.32208 189.107 2.85724 187.963 2.85724H186.205V5.72428H187.963ZM191.368 0.172087H192V6.23532H191.368V0.172087Z" fill="#0A4ECB"/>
</g>
</svg>
